<?xml version="1.0" standalone="no"?><!DOCTYPE svg PUBLIC "-//W3C//DTD SVG 1.1//EN" "http://www.w3.org/Graphics/SVG/1.1/DTD/svg11.dtd"><svg t="1519912205718" class="icon" style="" viewBox="0 0 1024 1024" version="1.1" xmlns="http://www.w3.org/2000/svg" p-id="1611" xmlns:xlink="http://www.w3.org/1999/xlink" width="200" height="200"><defs><style type="text/css"></style></defs><path d="M761.2 769c-0.5 0.5-1.1 1-1.8 1.3-2.4 1.3-5.4 1.1-7.6-0.5-22.7-15.8-65.2-38.5-82.5-32.4-3.8 1.3-8-0.7-9.4-4.5-1.3-3.8 7.7-130.2 8-132.1 0.7-4 4.5-6.7 8.5-5.9 3.5 0.6 86.9 17.5 86.8 168.9 0.2 2-0.6 3.9-2 5.2z" fill="#FBFCFF" p-id="1612"></path><path d="M756 778.2c-2.9 0-5.7-0.9-8.2-2.6-27-18.7-64-35.8-76.2-31.6-7.5 2.6-15.7-1.3-18.3-8.8-0.7-2-1.3-3.8 3-69.6 1.4-21.6 4.4-64.1 4.7-66.1 0.7-3.7 2.8-7 6-9.2 3.2-2.2 7-3 10.8-2.3 3.7 0.7 92.6 18.5 92.5 175.8 0 3.8-1.5 7.5-4.2 10.1-1 1-2.1 1.8-3.3 2.5-0.1 0-0.1 0.1-0.2 0.1-2 1.2-4.3 1.7-6.6 1.7z m-79.8-48.7c8.9 0 20.6 3.2 35.2 9.6 14.3 6.3 31 15.7 44.5 25 0.1 0.1 0.2 0.1 0.3 0l0.1-0.1c0.1-0.1 0.1-0.1 0.1-0.2 0-60.4-13.9-107.5-40.2-136.2-20-21.8-40-25.6-40.9-25.8h-0.3l-0.1 0.1c-0.9 8.4-8.3 115.1-8.1 128.8h0.2c2.7-0.8 5.8-1.2 9.2-1.2z" fill="#4D4D4D" p-id="1613"></path><path d="M353 737.1c-20.4-5.2-65.6 21.9-81.3 32.8-2.3 1.6-5.2 1.7-7.6 0.5-2.4-1.3-3.9-3.8-3.9-6.5 0-151.4 83.3-168.3 86.9-168.9 1.9-0.4 3.9 0.1 5.5 1.2 1.6 1.1 2.7 2.8 3 4.7 0.7 4 5.4 133.4 4.4 134.3 0 0-4.4 2.5-7 1.9z" fill="#FBFCFF" p-id="1614"></path><path d="M267.6 778.2c-2.3 0-4.6-0.5-6.7-1.7-4.7-2.5-7.7-7.4-7.7-12.7 0-157.9 88.9-175.2 92.7-175.8 3.7-0.7 7.5 0.1 10.7 2.3 3.1 2.1 5.3 5.5 6 9.2 0.7 3.7 2.7 62.6 3 69.3 0.6 17.7 1.1 33.7 1.4 45.3 0.6 23.5 0.6 23.5-1.8 25.9-0.4 0.4-1 0.8-1.5 1.1-2.1 1.2-7.5 3.8-12.2 2.6-4.1-1-14.3-1.1-37.7 9.9-14.8 7-29.7 16.2-37.9 21.9-2.6 1.9-5.5 2.7-8.3 2.7z m80.8-176.4s-0.1 0 0 0c-0.3 0.1-20.8 3.8-40.9 25.8-26.3 28.8-40.3 75.9-40.3 136.3 0 0.1 0.1 0.2 0.2 0.3 0.1 0.1 0.3 0.1 0.4 0 8.7-6 24.3-15.6 39.9-23 20.1-9.5 35-13.2 45.5-11.2-0.3-22.3-3.6-119.7-4.4-127.9 0-0.1-0.1-0.1-0.1-0.2-0.2-0.1-0.2-0.1-0.3-0.1z" fill="#4D4D4D" p-id="1615"></path><path d="M510.9 766.5c-55.8 0-101-45.2-101-101V352.8c0-36.1 13.2-76.6 36.3-111.1 16.8-25.1 42.6-52 64.7-52 34.7 0 101 63.5 101 163.2v312.7c0 55.7-45.2 100.9-101 100.9z" fill="#FBFCFF" p-id="1616"></path><path d="M510.9 773.5c-59.6 0-108-48.5-108-108V352.8c0-37.4 13.6-79.3 37.5-115 8.6-12.9 39.2-55.1 70.5-55.1 20.9 0 48 18.5 69.1 47.1 25.1 34 38.9 77.7 38.9 123.1v312.7c0 28.9-11.2 56-31.6 76.4-20.5 20.3-47.6 31.5-76.4 31.5z m-0.1-576.8c-12.1 0-34.8 12.8-58.9 48.9-22.3 33.5-35.1 72.6-35.1 107.3v312.7c0 51.8 42.2 94 94 94 25.1 0 48.7-9.8 66.5-27.5 17.8-17.8 27.5-41.4 27.5-66.5V352.9c0-42.4-12.8-83.2-36.1-114.8-14.7-20-39.1-41.4-57.9-41.4 0.1 0 0 0 0 0z" fill="#4D4D4D" p-id="1617"></path><path d="M645.2 753.8c-18.6 0-33.6-15.1-33.6-33.6V616.1c0-12 4.4-25.5 12.1-37 5.6-8.4 14.2-17.3 21.6-17.3 11.5 0 33.6 21.2 33.6 54.3v104.1c0 18.6-15.1 33.6-33.7 33.6z" fill="#FBFCFF" p-id="1618"></path><path d="M645.2 760.8c-22.4 0-40.6-18.2-40.6-40.6V616.1c0-13.4 4.8-28.3 13.3-40.9 4.1-6.1 15-20.4 27.4-20.4 8.5 0 18.8 6.7 26.8 17.6C681 584.5 686 600 686 616.2v104.1c0 10.9-4.2 21.1-11.9 28.7-7.8 7.6-18 11.8-28.9 11.8z m0-192.1c-3.1 0-9.8 5.3-15.7 14.2-6.9 10.4-10.9 22.5-10.9 33.1v104.1c0 14.7 12 26.6 26.6 26.6 7.1 0 13.8-2.8 18.8-7.8s7.8-11.7 7.8-18.8V616c0.1-30.5-19.9-47.3-26.6-47.3z" fill="#4D4D4D" p-id="1619"></path><path d="M376.2 753.8c-18.6 0-33.6-15.1-33.6-33.6V616.1c0-12 4.4-25.5 12.1-37 5.6-8.4 14.2-17.3 21.6-17.3 11.5 0 33.6 21.2 33.6 54.3v104.1c0 18.6-15.1 33.6-33.7 33.6z" fill="#FBFCFF" p-id="1620"></path><path d="M376.2 760.8c-22.4 0-40.6-18.2-40.6-40.6V616.1c0-13.3 4.8-28.3 13.3-40.9 4.1-6.1 15-20.4 27.4-20.4 8.5 0 18.8 6.7 26.8 17.6C412 584.5 417 600 417 616.2v104.1c0 10.9-4.2 21.1-11.9 28.7-7.8 7.6-18 11.8-28.9 11.8z m0-192.1c-3.1 0-9.8 5.3-15.7 14.2-6.9 10.4-10.9 22.5-10.9 33.1v104.1c0 14.7 12 26.6 26.6 26.6 7.1 0 13.8-2.8 18.8-7.8s7.8-11.7 7.8-18.8V616c0.1-30.5-19.9-47.3-26.6-47.3z" fill="#4D4D4D" p-id="1621"></path><path d="M549.3 510.7c-10.3 10.3-23.9 15.9-38.5 15.9-14.5 0-28.2-5.7-38.5-15.9-10.3-10.3-15.9-23.9-15.9-38.5 0-29.1 25.3-54.4 54.4-54.4 14.5 0 28.2 5.7 38.5 15.9 10.3 10.3 15.9 23.9 15.9 38.5 0 14.6-5.6 28.2-15.9 38.5z" fill="#00DFD4" p-id="1622"></path><path d="M510.9 533.6c-16.4 0-31.8-6.4-43.4-18-11.6-11.6-18-27-18-43.4 0-15.7 6.7-31.4 18.3-43 11.7-11.7 27.3-18.4 43-18.4 16.4 0 31.8 6.4 43.4 18 11.6 11.6 18 27 18 43.4s-6.4 31.8-18 43.4c-11.5 11.6-26.9 18-43.3 18z m-0.1-108.8c-12 0-24.1 5.2-33.1 14.3-9.1 9.1-14.2 21.1-14.2 33.1 0 12.7 4.9 24.6 13.9 33.5 8.9 8.9 20.8 13.9 33.5 13.9s24.6-4.9 33.5-13.9c8.9-8.9 13.9-20.9 13.9-33.5 0-12.7-4.9-24.6-13.9-33.5-9-8.9-20.9-13.9-33.6-13.9z" fill="#4D4D4D" p-id="1623"></path><path d="M487.4 472.3c0-12.9 10.5-23.4 23.4-23.4m5.6 13.3" fill="#4D4D4D" p-id="1624"></path><path d="M487.4 479.3c-3.9 0-7-3.1-7-7 0-8.1 3.2-15.8 8.9-21.5 5.7-5.7 13.4-8.9 21.5-8.9 3.9 0 7 3.1 7 7s-3.1 7-7 7c-4.4 0-8.5 1.7-11.6 4.8-3.1 3.1-4.8 7.2-4.8 11.6 0 3.9-3.1 7-7 7 0.1 0 0 0 0 0z" fill="#FBFCFF" p-id="1625"></path><path d="M409.8 351.3h202.1" fill="#FBFCFF" p-id="1626"></path><path d="M611.9 358.3h-202c-3.9 0-7-3.1-7-7s3.1-7 7-7h202c3.9 0 7 3.1 7 7s-3.2 7-7 7z" fill="#4D4D4D" p-id="1627"></path><path d="M413.1 827.3c-3.9 3.9-13.7 7.7-36.8 7.7-34.2 0-39.3-8.2-39.3-13.1 0-8.4 12.7-36.3 23.6-58.6 6.2-12.6 24.1-12.7 30.4-0.2 11.2 22.4 24.6 50.7 24.6 58.7-0.1 1.7-0.6 3.6-2.5 5.5z m0 0" fill="#FBFCFF" p-id="1628"></path><path d="M376.3 842h-0.1c-16.3 0-27.9-1.8-35.4-5.4-9.4-4.5-10.8-11.1-10.8-14.7 0-3.2 0-11.8 24.3-61.6 4-8.3 12.2-13.4 21.4-13.5h0.1c9.1 0 17.3 5.1 21.4 13.2 25.3 50.5 25.3 58.7 25.3 61.9 0 2.7-0.8 6.6-4.5 10.3-6.5 6.6-20.2 9.8-41.7 9.8z m-0.1-14s0.1 0 0 0c24.4 0 30.6-4.3 31.9-5.6 0.3-0.3 0.4-0.5 0.4-0.5 0-1.3-1.2-10.3-23.8-55.5-1.7-3.5-5.1-5.5-8.9-5.5h-0.1c-3.9 0-7.2 2.1-8.9 5.6-21.8 44.6-22.9 54.1-22.9 55.5 0.1 0 3.4 6 32.3 6z" fill="#4D4D4D" p-id="1629"></path><path d="M682.1 827.3c-3.9 3.9-13.7 7.7-36.8 7.7-34.2 0-39.3-8.2-39.3-13.1 0-5 12.7-33.3 23.5-56.6 6-13 24.5-13.1 30.7-0.2 11.2 23.3 24.4 51.7 24.4 56.8-0.1 1.6-0.6 3.5-2.5 5.4z m0 0" fill="#FBFCFF" p-id="1630"></path><path d="M645.3 842h-0.1c-16.3 0-27.9-1.8-35.4-5.4-9.4-4.5-10.8-11.1-10.8-14.7 0-2.7 0-7.6 24.2-59.5 3.9-8.5 12.2-13.8 21.6-13.8h0.2c9.3 0 17.6 5.2 21.6 13.6 25.1 52.1 25.1 57.1 25.1 59.8 0 2.7-0.8 6.6-4.5 10.3-6.7 6.5-20.4 9.7-41.9 9.7z m-0.1-14s0.1 0 0 0c24.4 0 30.6-4.3 31.9-5.6 0.2-0.2 0.3-0.3 0.3-0.4-0.4-2-3.3-11.5-23.7-53.7-1.7-3.5-5.1-5.6-9-5.6h-0.1c-3.9 0-7.3 2.2-9 5.8-19.6 42.3-22.2 51.6-22.6 53.5 0.4 0.5 4.7 6 32.2 6z" fill="#4D4D4D" p-id="1631"></path></svg>